<?xml version="1.0" standalone="no"?>
<svg viewBox="0 0 200 200" xmlns="http://www.w3.org/2000/svg">
  <path fill="#e6aa00" d="M36.3,-60.2C50.1,-54.9,66.6,-51.4,75.4,-41.7C84.3,-31.9,85.6,-16,82.9,-1.6C80.1,12.8,73.3,25.6,64.2,35C55.1,44.3,43.8,50.3,32.8,55.1C21.7,59.9,10.8,63.5,0.1,63.4C-10.7,63.3,-21.4,59.5,-35,56.1C-48.5,52.8,-64.9,49.8,-75.7,40.6C-86.5,31.3,-91.7,15.6,-87.9,2.2C-84.1,-11.2,-71.2,-22.5,-62.3,-34.9C-53.3,-47.4,-48.2,-61.1,-38.5,-68.8C-28.8,-76.5,-14.4,-78.2,-1.6,-75.5C11.2,-72.8,22.5,-65.6,36.3,-60.2Z" transform="translate(100 100)" />
</svg>
